<?xml version="1.0" standalone="no"?>
<!DOCTYPE svg PUBLIC "-//W3C//DTD SVG 20010904//EN"
 "http://www.w3.org/TR/2001/REC-SVG-20010904/DTD/svg10.dtd">
<svg version="1.0" xmlns="http://www.w3.org/2000/svg"
 width="1920.000000pt" height="1080.000000pt" viewBox="0 0 1920.000000 1080.000000"
 preserveAspectRatio="xMidYMid meet">

<g transform="translate(0.000000,1080.000000) scale(0.100000,-0.100000)"
fill="#000000" stroke="none">
<path d="M1038 1736 c-42 -24 -96 -58 -120 -74 -37 -25 -248 -147 -426 -245
-32 -17 -49 -32 -43 -36 7 -5 -10 -37 -49 -92 -63 -88 -68 -99 -47 -99 11 0
172 -98 264 -161 81 -55 279 -177 300 -183 11 -4 27 -13 33 -21 7 -8 16 -15
21 -15 16 0 119 146 119 169 0 22 1 22 128 16 70 -3 320 -12 555 -21 l429 -16
42 41 c23 22 48 41 55 41 10 0 12 46 10 234 -2 129 -1 237 3 241 3 3 2 22 -3
41 -6 19 -8 38 -5 42 2 4 1 14 -4 22 -7 11 -32 12 -157 1 -370 -30 -996 -70
-1005 -65 -6 4 -8 36 -3 88 6 78 0 136 -14 136 -3 0 -41 -20 -83 -44z"/>
</g>
</svg>
