<?xml version="1.0" standalone="no"?>
<!DOCTYPE svg PUBLIC "-//W3C//DTD SVG 20010904//EN"
 "http://www.w3.org/TR/2001/REC-SVG-20010904/DTD/svg10.dtd">
<svg version="1.0" xmlns="http://www.w3.org/2000/svg"
 width="1920.000000pt" height="1080.000000pt" viewBox="0 0 1920.000000 1080.000000"
 preserveAspectRatio="xMidYMid meet">

<g transform="translate(0.000000,1080.000000) scale(0.100000,-0.100000)"
fill="#000000" stroke="none">
<path d="M6404 10633 l-51 -4 -6 -2842 c-4 -1563 -7 -3857 -7 -5097 l0 -2255
99 -58 99 -58 671 418 670 418 16 53 c9 28 17 52 18 53 1 0 737 18 1636 39
l1633 38 601 -388 600 -388 91 59 91 58 3 658 c2 362 0 2531 -4 4821 l-6 4162
-94 0 -93 0 -634 -420 -633 -420 -1612 130 -1612 130 -664 450 c-662 449 -664
450 -713 448 -26 -1 -71 -3 -99 -5z"/>
</g>
</svg>
