<?xml version="1.0" standalone="no"?>
<!DOCTYPE svg PUBLIC "-//W3C//DTD SVG 20010904//EN"
 "http://www.w3.org/TR/2001/REC-SVG-20010904/DTD/svg10.dtd">
<svg version="1.0" xmlns="http://www.w3.org/2000/svg"
 width="1920.000000pt" height="1080.000000pt" viewBox="0 0 1920.000000 1080.000000"
 preserveAspectRatio="xMidYMid meet">

<g transform="translate(0.000000,1080.000000) scale(0.100000,-0.100000)"
fill="#000000" stroke="none">
<path d="M8918 5013 c-88 -10 -63 -54 56 -97 60 -22 83 -26 125 -20 28 4 54
10 56 14 3 5 -15 26 -41 48 -31 28 -61 44 -95 51 -28 6 -53 10 -57 9 -4 -1
-24 -3 -44 -5z"/>
<path d="M9127 4880 c-20 -4 -40 -10 -43 -13 -10 -10 65 -20 103 -14 43 7 52
15 33 27 -17 11 -38 11 -93 0z"/>
<path d="M9837 4251 c-94 -20 -70 -45 86 -91 94 -28 116 -31 175 -24 104 11
109 14 70 51 -18 17 -55 39 -83 48 -56 20 -190 28 -248 16z"/>
<path d="M10133 4121 c-54 -9 -63 -18 -28 -27 35 -9 160 8 160 21 0 12 -75 16
-132 6z"/>
<path d="M9644 3520 c-58 -23 -37 -57 70 -111 l84 -43 61 14 61 15 -52 57
c-31 32 -67 61 -87 67 -40 13 -107 13 -137 1z"/>
<path d="M9875 3358 c-49 -13 -53 -17 -35 -28 20 -13 97 -12 121 1 16 8 18 13
8 25 -13 16 -37 16 -94 2z"/>
<path d="M10943 2660 c-54 -13 -85 -38 -77 -63 13 -42 35 -60 177 -136 l76
-42 85 22 c83 21 99 30 75 45 -6 3 -19 26 -29 50 -41 95 -185 153 -307 124z"/>
<path d="M11242 2415 c-45 -12 -85 -25 -89 -28 -7 -7 58 -37 80 -37 7 0 37 7
65 15 38 12 52 21 52 34 0 36 -21 39 -108 16z"/>
<path d="M10683 1385 c-17 -7 -36 -22 -42 -33 -22 -41 33 -120 129 -185 25
-16 55 -39 67 -50 21 -18 27 -19 103 -7 44 7 82 15 84 19 8 12 -75 166 -106
198 -36 37 -122 73 -171 73 -18 -1 -46 -7 -64 -15z"/>
<path d="M10967 1075 c-32 -7 -60 -15 -63 -18 -4 -3 9 -15 27 -26 43 -26 118
-28 148 -3 20 16 21 18 6 40 -18 25 -34 26 -118 7z"/>
</g>
</svg>
