<?xml version="1.0" standalone="no"?>
<!DOCTYPE svg PUBLIC "-//W3C//DTD SVG 20010904//EN"
 "http://www.w3.org/TR/2001/REC-SVG-20010904/DTD/svg10.dtd">
<svg version="1.0" xmlns="http://www.w3.org/2000/svg"
 width="1920.000000pt" height="1080.000000pt" viewBox="0 0 1920.000000 1080.000000"
 preserveAspectRatio="xMidYMid meet">

<g transform="translate(0.000000,1080.000000) scale(0.100000,-0.100000)"
fill="#000000" stroke="none">
<path d="M9380 5053 c-30 -1 -158 -7 -285 -13 -126 -6 -247 -14 -268 -17 l-38
-6 3 -55 3 -55 105 -66 105 -67 3 -286 2 -286 28 -30 c15 -16 62 -75 105 -132
77 -101 77 -102 77 -163 0 -34 3 -127 7 -206 l6 -144 125 -176 c68 -97 130
-181 138 -187 9 -7 23 -116 45 -350 17 -186 35 -341 39 -344 3 -3 126 -96 272
-208 l266 -203 5 -57 c4 -31 14 -183 23 -337 l16 -280 265 -353 c226 -301 269
-353 287 -349 11 3 442 89 956 192 514 103 938 190 942 194 4 3 -170 140 -386
303 l-393 298 -6 77 c-4 43 -9 196 -13 340 l-7 262 -261 207 c-143 114 -262
208 -264 209 -1 1 -11 139 -23 306 -11 167 -22 309 -23 314 -2 6 -157 84 -344
174 l-340 163 -6 62 c-3 33 -8 121 -12 194 l-7 133 -150 102 c-82 56 -158 106
-167 111 -22 12 -27 56 -36 324 -6 172 -9 204 -23 211 -9 5 -152 52 -317 105
-312 99 -303 97 -454 89z"/>
</g>
</svg>
