<?xml version="1.0" standalone="no"?>
<!DOCTYPE svg PUBLIC "-//W3C//DTD SVG 20010904//EN"
 "http://www.w3.org/TR/2001/REC-SVG-20010904/DTD/svg10.dtd">
<svg version="1.0" xmlns="http://www.w3.org/2000/svg"
 width="1920.000000pt" height="1080.000000pt" viewBox="0 0 1920.000000 1080.000000"
 preserveAspectRatio="xMidYMid meet">

<g transform="translate(0.000000,1080.000000) scale(0.100000,-0.100000)"
fill="#000000" stroke="none">
<path d="M1663 1257 c-372 -83 -583 -135 -583 -143 0 -16 138 -386 148 -395 4
-4 54 3 112 16 101 23 201 45 595 135 99 22 250 56 335 75 198 45 213 49 216
61 2 5 -43 92 -99 194 -76 136 -108 186 -122 187 -11 1 -282 -57 -602 -130z"/>
</g>
</svg>
