<?xml version="1.0" standalone="no"?>
<!DOCTYPE svg PUBLIC "-//W3C//DTD SVG 20010904//EN"
 "http://www.w3.org/TR/2001/REC-SVG-20010904/DTD/svg10.dtd">
<svg version="1.0" xmlns="http://www.w3.org/2000/svg"
 width="1920.000000pt" height="1080.000000pt" viewBox="0 0 1920.000000 1080.000000"
 preserveAspectRatio="xMidYMid meet">

<g transform="translate(0.000000,1080.000000) scale(0.100000,-0.100000)"
fill="#000000" stroke="none">
<path d="M7719 9969 c-673 -457 -1229 -836 -1236 -843 -9 -8 -4 -737 22 -3261
19 -1787 35 -3315 35 -3395 l1 -145 485 -415 c267 -228 490 -421 496 -427 8
-10 -5 -33 -48 -89 l-59 -77 -3 -566 -3 -566 110 -92 110 -93 1961 0 1961 0
887 260 c488 143 897 265 908 270 19 7 21 13 14 49 -4 22 -1 204 7 403 7 200
12 373 11 386 -3 20 -60 49 -473 230 l-470 208 -6 94 c-4 52 -7 194 -8 316 0
122 -4 241 -7 266 l-6 44 -377 164 c-207 89 -379 166 -382 169 -4 3 -16 145
-27 315 -12 170 -24 312 -29 316 -4 4 -151 65 -326 135 -176 71 -321 133 -323
139 -2 6 -10 81 -19 166 -8 85 -18 176 -21 201 l-5 46 -263 124 -263 124 -7
80 c-3 44 -6 146 -6 226 0 224 33 190 -277 289 -146 47 -271 90 -277 95 -10 8
-11 58 -6 225 4 118 6 217 4 219 -3 3 -101 17 -220 32 -118 15 -217 29 -220
32 -6 5 -63 1010 -59 1015 2 2 108 -3 237 -11 128 -8 234 -13 235 -12 1 0 -10
116 -26 256 -15 139 -27 255 -26 257 2 2 123 10 271 18 147 8 269 15 270 17 2
2 6 143 10 314 l7 311 26 5 c14 3 143 22 286 42 143 21 261 38 262 39 1 1 -4
136 -13 300 -8 165 -13 300 -12 302 2 1 140 32 308 69 168 37 309 71 313 75 4
3 1 135 -6 291 -8 156 -11 287 -8 291 4 4 195 72 426 152 354 122 420 147 419
163 -1 10 -19 156 -40 325 -21 169 -36 310 -32 313 4 4 229 78 499 165 271 86
494 161 496 166 2 5 -12 77 -30 159 l-33 150 -2100 3 -2100 2 -1225 -831z"/>
</g>
</svg>
