<?xml version="1.0" standalone="no"?>
<!DOCTYPE svg PUBLIC "-//W3C//DTD SVG 20010904//EN"
 "http://www.w3.org/TR/2001/REC-SVG-20010904/DTD/svg10.dtd">
<svg version="1.0" xmlns="http://www.w3.org/2000/svg"
 width="1920.000000pt" height="1080.000000pt" viewBox="0 0 1920.000000 1080.000000"
 preserveAspectRatio="xMidYMid meet">

<g transform="translate(0.000000,1080.000000) scale(0.100000,-0.100000)"
fill="#000000" stroke="none">
<path d="M7255 3989 c-77 -50 -144 -95 -150 -101 -10 -9 2 -21 82 -84 l31 -25
42 26 c22 14 57 40 78 59 20 18 78 61 127 96 50 35 92 65 94 67 10 7 -12 16
-71 28 -35 8 -70 16 -78 19 -9 4 -71 -30 -155 -85z"/>
</g>
</svg>
