<?xml version="1.0" standalone="no"?>
<!DOCTYPE svg PUBLIC "-//W3C//DTD SVG 20010904//EN"
 "http://www.w3.org/TR/2001/REC-SVG-20010904/DTD/svg10.dtd">
<svg version="1.0" xmlns="http://www.w3.org/2000/svg"
 width="1920.000000pt" height="1080.000000pt" viewBox="0 0 1920.000000 1080.000000"
 preserveAspectRatio="xMidYMid meet">

<g transform="translate(0.000000,1080.000000) scale(0.100000,-0.100000)"
fill="#000000" stroke="none">
<path d="M12675 9529 c-720 -48 -1311 -88 -1311 -88 -1 -1 -5 -533 -9 -1183
-8 -1355 -18 -1210 92 -1373 57 -85 139 -172 227 -240 l39 -31 -47 -70 c-52
-78 -55 -81 -206 -134 l-105 -38 -3 -183 c-2 -164 0 -193 20 -269 16 -63 21
-110 20 -181 l-1 -95 161 -17 c89 -10 164 -19 165 -21 2 -2 -4 -157 -14 -346
-12 -229 -15 -343 -8 -345 16 -5 2439 -74 2443 -70 3 2 -5 1038 -17 2302 -12
1264 -21 2337 -21 2386 l0 87 -57 -1 c-32 -1 -647 -41 -1368 -90z"/>
</g>
</svg>
