<?xml version="1.0" standalone="no"?>
<!DOCTYPE svg PUBLIC "-//W3C//DTD SVG 20010904//EN"
 "http://www.w3.org/TR/2001/REC-SVG-20010904/DTD/svg10.dtd">
<svg version="1.0" xmlns="http://www.w3.org/2000/svg"
 width="1920.000000pt" height="1080.000000pt" viewBox="0 0 1920.000000 1080.000000"
 preserveAspectRatio="xMidYMid meet">

<g transform="translate(0.000000,1080.000000) scale(0.100000,-0.100000)"
fill="#000000" stroke="none">
<path d="M8520 8625 c-102 -24 -257 -63 -345 -88 -348 -99 -640 -125 -1149
-103 l-209 9 -59 -29 c-41 -20 -60 -36 -65 -53 -7 -29 20 -6087 27 -6095 7 -7
2118 357 2259 390 117 27 130 25 131 -13 0 -7 6 -13 13 -13 6 0 261 59 566
132 467 110 556 129 565 117 6 -8 23 -13 39 -11 l27 3 0 177 c1 305 -50 4588
-56 4770 l-6 173 -37 24 c-21 14 -67 28 -111 35 -162 27 -264 72 -530 238
-180 113 -222 146 -265 207 -58 85 -150 109 -189 51 -11 -18 -27 -24 -73 -28
-32 -3 -80 -3 -108 1 -45 5 -50 8 -56 37 -12 59 -45 101 -87 108 -61 10 -89 6
-282 -39z"/>
</g>
</svg>
